<svg width="55" height="51" viewBox="0 0 55 51" fill="none" xmlns="http://www.w3.org/2000/svg">
<rect width="55" height="51" rx="8" fill="#AA711C"/>
<path d="M20.7381 25.374C20.7381 25.768 20.7769 26.088 20.8505 26.324C20.9319 26.558 21.0365 26.814 21.1799 27.092C21.2256 27.1655 21.2505 27.2507 21.2516 27.338C21.2516 27.444 21.1896 27.552 21.0578 27.658L20.4068 28.106C20.3287 28.1643 20.2357 28.1976 20.1394 28.202C20.0348 28.202 19.9321 28.15 19.8294 28.054C19.6902 27.8993 19.5656 27.7312 19.4574 27.552C19.3422 27.3469 19.2355 27.1367 19.1377 26.922C18.3337 27.904 17.3242 28.396 16.1075 28.396C15.2414 28.396 14.5497 28.138 14.046 27.626C13.5403 27.114 13.2826 26.43 13.2826 25.576C13.2826 24.668 13.5926 23.932 14.2204 23.376C14.8501 22.82 15.6851 22.544 16.7469 22.544C17.0956 22.544 17.4579 22.576 17.8396 22.628C18.2213 22.682 18.6146 22.768 19.0254 22.864V22.084C19.0254 21.272 18.8607 20.706 18.541 20.376C18.2116 20.044 17.6536 19.884 16.8592 19.884C16.4989 19.884 16.1288 19.928 15.7471 20.024C15.3679 20.1172 14.9956 20.2382 14.6331 20.386C14.516 20.4407 14.3956 20.4875 14.2727 20.526C14.2194 20.5442 14.164 20.555 14.108 20.558C13.9627 20.558 13.891 20.45 13.891 20.226V19.702C13.891 19.532 13.9104 19.402 13.9627 19.33C14.0408 19.2319 14.1404 19.1544 14.2533 19.104C14.6117 18.912 15.0457 18.752 15.5514 18.624C16.0552 18.484 16.5919 18.422 17.1596 18.422C18.386 18.422 19.2831 18.71 19.8604 19.286C20.4281 19.862 20.7168 20.738 20.7168 21.914V25.374H20.7362H20.7381ZM16.5512 26.996C16.8902 26.996 17.2409 26.932 17.6129 26.804C17.983 26.676 18.3143 26.44 18.5914 26.12C18.7575 25.9235 18.8775 25.6902 18.9421 25.438C19.0041 25.18 19.0467 24.872 19.0467 24.508V24.06C18.7337 23.9817 18.4168 23.9216 18.0973 23.88C17.7761 23.8371 17.4525 23.8151 17.1286 23.814C16.4369 23.814 15.9312 23.954 15.5921 24.242C15.2511 24.53 15.0884 24.936 15.0884 25.47C15.0884 25.97 15.2104 26.344 15.4681 26.602C15.7161 26.868 16.0765 26.996 16.5512 26.996ZM24.8301 28.15C24.6441 28.15 24.5201 28.118 24.4387 28.042C24.3554 27.978 24.2837 27.83 24.2217 27.626L21.7999 19.372C21.7521 19.2337 21.7202 19.09 21.7049 18.944C21.7049 18.774 21.7882 18.678 21.9529 18.678H22.9643C23.1581 18.678 23.2937 18.71 23.3654 18.784C23.4487 18.848 23.5107 18.998 23.5727 19.2L25.3048 26.27L26.9129 19.2C26.9633 18.988 27.0253 18.848 27.1067 18.784C27.231 18.7054 27.3758 18.6684 27.5213 18.678H28.3447C28.5424 18.678 28.6741 18.71 28.7574 18.784C28.8407 18.848 28.9124 18.998 28.9531 19.2L30.5826 26.356L32.3651 19.2C32.3981 19.0452 32.4696 18.9018 32.5724 18.784C32.6924 18.7055 32.8336 18.6684 32.9754 18.678H33.9344C34.0991 18.678 34.1921 18.764 34.1921 18.944C34.1921 18.998 34.1805 19.052 34.1727 19.116C34.1561 19.2068 34.1314 19.2959 34.0991 19.382L31.6133 27.636C31.5513 27.85 31.4796 27.99 31.3982 28.054C31.2812 28.1313 31.1436 28.1684 31.0049 28.16H30.1195C29.9238 28.16 29.7901 28.128 29.7068 28.054C29.6235 27.978 29.5518 27.84 29.5111 27.626L27.9127 20.74L26.3239 27.618C26.2736 27.832 26.2116 27.97 26.1302 28.044C26.0469 28.12 25.9016 28.152 25.7175 28.152H24.8301V28.15ZM38.0787 28.438C37.5437 28.4388 37.0104 28.3743 36.49 28.246C35.9746 28.118 35.5736 27.978 35.3042 27.818C35.1396 27.722 35.0272 27.616 34.9846 27.518C34.9452 27.4239 34.9247 27.3225 34.9245 27.22V26.676C34.9245 26.452 35.0059 26.344 35.1609 26.344C35.2241 26.3442 35.287 26.355 35.3469 26.376C35.4089 26.398 35.5019 26.44 35.6046 26.484C35.9533 26.644 36.3369 26.772 36.738 26.858C37.1507 26.942 37.5517 26.986 37.9644 26.986C38.6154 26.986 39.1192 26.868 39.4699 26.634C39.6383 26.5288 39.7768 26.3793 39.871 26.2008C39.9653 26.0223 40.0121 25.8212 40.0066 25.618C40.01 25.4808 39.9872 25.3443 39.9393 25.2162C39.8914 25.0882 39.8195 24.9712 39.7276 24.872C39.5435 24.668 39.1928 24.486 38.6871 24.316L37.1914 23.836C36.4396 23.59 35.8816 23.226 35.5426 22.746C35.2106 22.3025 35.0295 21.7585 35.0272 21.198C35.0272 20.75 35.1202 20.354 35.3042 20.012C35.4902 19.672 35.7382 19.372 36.0482 19.136C36.3582 18.892 36.707 18.71 37.1197 18.582C37.5324 18.454 37.9644 18.4 38.4178 18.4C38.6464 18.4 38.8828 18.41 39.1095 18.442C39.3459 18.474 39.5629 18.518 39.7799 18.562C39.9852 18.614 40.1829 18.666 40.3669 18.732C40.5529 18.796 40.6963 18.86 40.8009 18.924C40.9226 18.9871 41.0286 19.0781 41.1109 19.19C41.1773 19.2942 41.2092 19.4176 41.202 19.542V20.044C41.202 20.268 41.1206 20.386 40.9656 20.386C40.8284 20.3698 40.6955 20.3264 40.5742 20.258C39.9512 19.9729 39.2756 19.8309 38.5941 19.842C38.0071 19.842 37.5421 19.938 37.2224 20.142C36.9027 20.342 36.738 20.654 36.738 21.092C36.738 21.39 36.8407 21.646 37.048 21.85C37.2534 22.052 37.6351 22.254 38.1814 22.436L39.6462 22.916C40.3882 23.162 40.9249 23.504 41.2446 23.942C41.5643 24.38 41.7174 24.882 41.7174 25.438C41.7174 25.898 41.6263 26.312 41.45 26.676C41.2675 27.0413 41.0111 27.3618 40.6982 27.616C40.3786 27.882 39.9969 28.076 39.5532 28.214C39.0882 28.364 38.6038 28.438 38.0787 28.438Z" fill="#252F3E"/>
<path fill-rule="evenodd" clip-rule="evenodd" d="M40.0259 33.626C36.6353 36.22 31.7063 37.598 27.469 37.598C21.5306 37.598 16.1792 35.324 12.1376 31.544C11.8179 31.244 12.1066 30.838 12.4863 31.074C16.8593 33.7 22.2513 35.292 27.8313 35.292C31.592 35.292 35.7266 34.48 39.5319 32.814C40.0996 32.548 40.5839 33.198 40.0259 33.626Z" fill="#FF9900"/>
<path fill-rule="evenodd" clip-rule="evenodd" d="M41.4384 31.96C41.0063 31.386 38.5728 31.684 37.4704 31.822C37.141 31.866 37.0887 31.566 37.3871 31.342C39.3246 29.932 42.5117 30.338 42.8818 30.808C43.2538 31.288 42.7791 34.588 40.9637 36.168C40.6866 36.414 40.4192 36.288 40.5413 35.968C40.954 34.908 41.8724 32.528 41.4384 31.962V31.96Z" fill="#FF9900"/>
</svg>
