<svg width="55" height="51" viewBox="0 0 55 51" fill="none" xmlns="http://www.w3.org/2000/svg">
<rect width="55" height="51" rx="8" fill="#153F2F"/>
<path d="M33.5 32.6666C37.0899 32.6666 40 29.9057 40 26.5C40 23.0942 37.0899 20.3333 33.5 20.3333C29.9101 20.3333 27 23.0942 27 26.5C27 29.9057 29.9101 32.6666 33.5 32.6666Z" fill="#19BCFE"/>
<path fill-rule="evenodd" clip-rule="evenodd" d="M20.5 45C24.0899 45 27 42.2391 27 38.8334C27 37.9036 27 35.8481 27 32.6667C24.0799 32.6667 21.9133 32.6667 20.5 32.6667C16.9101 32.6667 14 35.4276 14 38.8334C14 42.2391 16.9101 45 20.5 45Z" fill="#09CF83"/>
<path fill-rule="evenodd" clip-rule="evenodd" d="M20.5 32.6666C21.6966 32.6666 23.8633 32.6666 27 32.6666V20.3333C23.8633 20.3333 21.6966 20.3333 20.5 20.3333C16.9101 20.3333 14 23.0942 14 26.5C14 29.9057 16.9101 32.6666 20.5 32.6666Z" fill="#A259FF"/>
<path fill-rule="evenodd" clip-rule="evenodd" d="M20.5 20.3333C21.6966 20.3333 23.8633 20.3333 27 20.3333V8C23.8633 8 21.6966 8 20.5 8C16.9101 8 14 10.7609 14 14.1667C14 17.5724 16.9101 20.3333 20.5 20.3333Z" fill="#F24E1E"/>
<path fill-rule="evenodd" clip-rule="evenodd" d="M33.5 20.3333H27V8H33.5C37.0899 8 40 10.7609 40 14.1667C40 17.5724 37.0899 20.3333 33.5 20.3333Z" fill="#FF7262"/>
</svg>
