<svg width="55" height="51" viewBox="0 0 55 51" fill="none" xmlns="http://www.w3.org/2000/svg">
<rect width="55" height="51" rx="8" fill="#874D13"/>
<path d="M13.6125 37.0562L13.8356 36.7378L24.3619 16.294L24.3842 16.0776L19.7445 7.15512C19.6595 6.99196 19.5266 6.86027 19.3646 6.77869C19.2025 6.69711 19.0195 6.66976 18.8414 6.70052C18.6634 6.73127 18.4992 6.81858 18.3723 6.95008C18.2454 7.08158 18.162 7.25062 18.134 7.43328L13.6125 37.0562Z" fill="#FFC24A"/>
<path d="M13.7437 36.8144L13.9117 36.4784L24.3291 16.2469L19.7012 7.2895C19.6249 7.13372 19.5013 7.00746 19.349 6.92962C19.1967 6.85178 19.0239 6.82656 18.8564 6.85773C18.6889 6.88891 18.5358 6.9748 18.42 7.10254C18.3042 7.23029 18.232 7.393 18.2141 7.56631L13.7437 36.8144Z" fill="#FFA712"/>
<path d="M27.7665 22.8259L31.221 19.1978L27.7652 12.4508C27.6891 12.3056 27.576 12.1842 27.4379 12.0996C27.2998 12.015 27.1419 11.9703 26.981 11.9703C26.82 11.9703 26.6621 12.015 26.524 12.0996C26.3859 12.1842 26.2728 12.3056 26.1968 12.4508L24.3501 16.0548V16.3625L27.7665 22.8259Z" fill="#F4BD62"/>
<path d="M27.7048 22.6781L31.0635 19.1575L27.7048 12.6C27.6498 12.4581 27.5559 12.3354 27.4344 12.2469C27.3129 12.1584 27.169 12.1077 27.02 12.101C26.871 12.0944 26.7233 12.132 26.5947 12.2093C26.4661 12.2866 26.3621 12.4004 26.2952 12.5369L24.4393 16.204L24.3842 16.3907L27.7048 22.6781Z" fill="#FFA50E"/>
<path d="M13.6151 37.0576L13.7162 36.9528L14.0824 36.8009L27.5486 23.0651L27.7192 22.5894L24.3605 16.0346L13.6151 37.0576Z" fill="#F6820C"/>
<path d="M28.197 43.9846L40.3875 37.0253L36.9041 15.0806C36.8791 14.9259 36.813 14.7812 36.713 14.6625C36.613 14.5437 36.483 14.4555 36.3372 14.4074C36.1914 14.3594 36.0355 14.3534 35.8866 14.3901C35.7377 14.4269 35.6016 14.5049 35.4932 14.6156L13.6125 37.0562L25.7308 43.9833C26.1075 44.1985 26.5318 44.3115 26.9632 44.3115C27.3947 44.3115 27.8189 44.1985 28.1957 43.9833" fill="#FDE068"/>
<path d="M40.2759 36.9675L36.8214 15.188C36.8153 15.0401 36.7665 14.8973 36.6811 14.7777C36.5957 14.6582 36.4776 14.5673 36.3417 14.5165C36.2058 14.4657 36.0583 14.4574 35.9178 14.4925C35.7772 14.5276 35.65 14.6046 35.5522 14.7137L13.7437 37.0146L25.7282 43.8677C26.1019 44.0812 26.5228 44.1932 26.9508 44.1932C27.3788 44.1932 27.7996 44.0812 28.1734 43.8677L40.2759 36.9675Z" fill="#FCCA3F"/>
<path d="M28.197 43.775C27.8202 43.9902 27.396 44.1032 26.9646 44.1032C26.5331 44.1032 26.1089 43.9902 25.7321 43.775L13.7122 36.9514L13.6125 37.0563L25.7308 43.9833C26.1075 44.1985 26.5318 44.3115 26.9632 44.3115C27.3947 44.3115 27.8189 44.1985 28.1957 43.9833L40.3875 37.0253L40.3573 36.8372L28.197 43.775Z" fill="#EEAB37"/>
</svg>
