<svg width="55" height="51" viewBox="0 0 55 51" fill="none" xmlns="http://www.w3.org/2000/svg">
<rect width="55" height="51" rx="8" fill="#49221D"/>
<path d="M10.2317 28.134C9.2561 27.2316 9.2561 25.7684 10.2317 24.866L25.2335 10.9893C26.2091 10.0869 27.7909 10.0869 28.7665 10.9893L43.7682 24.866C44.7439 25.7684 44.7439 27.2316 43.7682 28.134L28.7665 42.0106C27.7909 42.9131 26.2091 42.9131 25.2335 42.0106L10.2317 28.134Z" fill="#FF442A"/>
<path d="M22.1861 13.8524L20.667 15.2576L24.5906 18.887C24.4319 19.202 24.3432 19.5533 24.3432 19.9237C24.3432 20.9754 25.0576 21.8728 26.062 22.2233V31.1016C25.0576 31.4521 24.3432 32.3495 24.3432 33.4012C24.3432 34.7582 25.5325 35.8582 26.9995 35.8582C28.4665 35.8582 29.6557 34.7582 29.6557 33.4012C29.6557 32.4478 29.0686 31.621 28.2105 31.2138V22.2354L31.9611 25.7047C31.8101 26.0133 31.7261 26.3559 31.7261 26.7167C31.7261 28.0737 32.9154 29.1737 34.3824 29.1737C35.8494 29.1737 37.0386 28.0737 37.0386 26.7167C37.0386 25.3597 35.8494 24.2597 34.3824 24.2597C34.0972 24.2597 33.8227 24.3012 33.5652 24.3781L29.5371 20.652C29.6142 20.4219 29.6557 20.1773 29.6557 19.9237C29.6557 18.5667 28.4665 17.4667 26.9995 17.4667C26.7254 17.4667 26.461 17.5051 26.2121 17.5764L22.1861 13.8524Z" fill="#1A1A1A"/>
</svg>
