<svg width="47" height="44" viewBox="0 0 47 44" fill="none" xmlns="http://www.w3.org/2000/svg">
<g clip-path="url(#clip0_7_134)">
<path fill-rule="evenodd" clip-rule="evenodd" d="M23.5 0C36.479 0 47 10.0978 47 22.5564C47 32.5202 40.2743 40.9727 30.9424 43.9581C29.751 44.1803 29.328 43.4759 29.328 42.8753C29.328 42.1317 29.3562 39.703 29.3562 36.6846C29.3562 34.5814 28.6042 33.2087 27.7606 32.5091C32.994 31.9503 38.493 30.0427 38.493 21.3791C38.493 18.9151 37.5812 16.9044 36.0725 15.3248C36.3169 14.755 37.1229 12.4607 35.8422 9.3543C35.8422 9.3543 33.8729 8.74989 29.3867 11.6671C27.5091 11.1677 25.4975 10.9164 23.5 10.9076C21.5025 10.9164 19.4933 11.1677 17.618 11.6671C13.1271 8.74989 11.1531 9.3543 11.1531 9.3543C9.87706 12.4607 10.6831 14.755 10.9252 15.3248C9.4235 16.9044 8.50466 18.9151 8.50466 21.3791C8.50466 30.0207 13.9919 31.9575 19.2113 32.5273C18.5392 33.0905 17.9305 34.0841 17.719 35.5427C16.3795 36.1191 12.9767 37.1166 10.8805 33.6692C10.8805 33.6692 9.63735 31.502 7.27795 31.3436C7.27795 31.3436 4.9867 31.3151 7.11815 32.7143C7.11815 32.7143 8.6574 33.4073 9.72665 36.0143C9.72665 36.0143 11.1061 40.0402 17.6438 38.6762C17.6556 40.5616 17.6767 42.3385 17.6767 42.8753C17.6767 43.4715 17.2443 44.1693 16.0716 43.9603C6.73274 40.9793 0 32.5224 0 22.5564C0 10.0978 10.5233 0 23.5 0Z" fill="white"/>
</g>
<defs>
<clipPath id="clip0_7_134">
<rect width="47" height="44" fill="white"/>
</clipPath>
</defs>
</svg>
