<svg width="47" height="45" viewBox="0 0 47 45" fill="none" xmlns="http://www.w3.org/2000/svg">
<path opacity="0.5" d="M3.91669 22.8823C3.91669 18.5915 3.91669 16.4462 4.93345 14.6676C5.95022 12.8891 7.8078 11.7853 11.5229 9.57774L15.4396 7.25038C19.3667 4.91679 21.3304 3.75 23.5 3.75C25.6697 3.75 27.6333 4.91679 31.5605 7.25038L35.4772 9.57772C39.1923 11.7853 41.0498 12.8891 42.0666 14.6676C43.0834 16.4462 43.0834 18.5915 43.0834 22.8823V25.7344C43.0834 33.0484 43.0834 36.7056 40.789 38.9777C38.4948 41.25 34.802 41.25 27.4167 41.25H19.5834C12.198 41.25 8.50536 41.25 6.21101 38.9777C3.91669 36.7056 3.91669 33.0484 3.91669 25.7344V22.8823Z" stroke="#F7DF1E" stroke-width="3.75"/>
<path d="M29.375 33.75H17.625" stroke="#F7DF1E" stroke-width="3.75" stroke-linecap="round"/>
</svg>
