<svg width="55" height="51" viewBox="0 0 55 51" fill="none" xmlns="http://www.w3.org/2000/svg">
<rect y="0.679993" width="55" height="49.64" rx="8" fill="#F7DF1E"/>
<g clip-path="url(#clip0_13_2)">
<path d="M46.6 15.28H21.4C18.4177 15.28 16 17.5678 16 20.39V44.2367C16 47.0588 18.4177 49.3467 21.4 49.3467H46.6C49.5823 49.3467 52 47.0588 52 44.2367V20.39C52 17.5678 49.5823 15.28 46.6 15.28Z" fill="#F7DF1E"/>
<path d="M38.7812 39.8985C39.4844 41.0296 40.4688 41.828 42.0859 41.828C43.4922 41.828 44.4062 41.1627 44.4062 40.2312C44.4062 39.1666 43.4922 38.7674 41.9453 38.102L41.1016 37.7693C38.6406 36.7713 37.0234 35.5736 37.0234 32.9787C37.0234 30.5834 38.9219 28.7204 41.9453 28.7204C44.125 28.7204 45.6719 29.4523 46.7266 31.3153L44.125 32.9122C43.5625 31.9141 42.9297 31.5149 41.9453 31.5149C40.9609 31.5149 40.3281 32.1137 40.3281 32.9122C40.3281 33.8437 40.9609 34.2429 42.4375 34.8417L43.2812 35.1744C46.1641 36.3721 47.7812 37.5032 47.7812 40.2312C47.7812 43.0922 45.3906 44.6891 42.1562 44.6891C38.9922 44.6891 36.9531 43.2919 35.9688 41.4288L38.7812 39.8985ZM26.8281 40.1646C27.3906 41.0296 27.8125 41.828 29.0078 41.828C30.1328 41.828 30.8359 41.4288 30.8359 39.832V28.7869H34.2109V39.6989C34.2109 43.0257 32.1719 44.4895 29.1484 44.4895C26.4062 44.4895 24.8594 43.1588 24.0859 41.5619L26.8281 40.1646Z" fill="black"/>
</g>
<defs>
<clipPath id="clip0_13_2">
<rect width="36" height="34.0667" fill="white" transform="translate(16 15.28)"/>
</clipPath>
</defs>
</svg>
