<svg width="43" height="43" viewBox="0 0 43 43" fill="none" xmlns="http://www.w3.org/2000/svg">
<path d="M11.6458 14.3333C13.1301 14.3333 14.3333 13.1301 14.3333 11.6458C14.3333 10.1616 13.1301 8.95834 11.6458 8.95834C10.1615 8.95834 8.95831 10.1616 8.95831 11.6458C8.95831 13.1301 10.1615 14.3333 11.6458 14.3333Z" fill="white"/>
<path d="M8.95831 17.9167C8.95831 16.9272 9.76048 16.125 10.75 16.125H12.5416C13.5311 16.125 14.3333 16.9271 14.3333 17.9167V32.25C14.3333 33.2395 13.5311 34.0417 12.5416 34.0417H10.75C9.76048 34.0417 8.95831 33.2395 8.95831 32.25V17.9167Z" fill="white"/>
<path d="M19.7084 34.0417H21.5C22.4896 34.0417 23.2917 33.2395 23.2917 32.25V24.1875C23.2917 21.5 28.6667 19.7083 28.6667 23.2917V32.2507C28.6667 33.2403 29.4688 34.0417 30.4584 34.0417H32.25C33.2396 34.0417 34.0417 33.2395 34.0417 32.25V21.5C34.0417 17.9167 31.3542 16.125 27.7709 16.125C24.1875 16.125 23.2917 18.8125 23.2917 18.8125V17.9167C23.2917 16.9271 22.4896 16.125 21.5 16.125H19.7084C18.7188 16.125 17.9167 16.9272 17.9167 17.9167V32.25C17.9167 33.2395 18.7188 34.0417 19.7084 34.0417Z" fill="white"/>
<path fill-rule="evenodd" clip-rule="evenodd" d="M35.8334 1.79166C38.802 1.79166 41.2084 4.19813 41.2084 7.16666V35.8333C41.2084 38.8019 38.802 41.2083 35.8334 41.2083H7.16669C4.19816 41.2083 1.79169 38.8019 1.79169 35.8333V7.16666C1.79169 4.19813 4.19816 1.79166 7.16669 1.79166H35.8334ZM35.8334 5.37499C36.8229 5.37499 37.625 6.17716 37.625 7.16666V35.8333C37.625 36.8229 36.8229 37.625 35.8334 37.625H7.16669C6.17719 37.625 5.37502 36.8229 5.37502 35.8333V7.16666C5.37502 6.17716 6.17719 5.37499 7.16669 5.37499H35.8334Z" fill="white"/>
</svg>
