<svg width="52" height="56" viewBox="0 0 52 56" fill="none" xmlns="http://www.w3.org/2000/svg">
<path opacity="0.1" d="M19.5 14C19.5 17.866 16.5898 21 13 21C9.41016 21 6.5 17.866 6.5 14C6.5 10.134 9.41016 7 13 7C16.5898 7 19.5 10.134 19.5 14Z" fill="#323232"/>
<path opacity="0.1" d="M45.5 42C45.5 45.8661 42.59 49 39 49C35.41 49 32.5 45.8661 32.5 42C32.5 38.1339 35.41 35 39 35C42.59 35 45.5 38.1339 45.5 42Z" fill="#323232"/>
<path d="M19.5 14C19.5 17.866 16.5898 21 13 21C9.41016 21 6.5 17.866 6.5 14C6.5 10.134 9.41016 7 13 7C16.5898 7 19.5 10.134 19.5 14Z" stroke="#703498" stroke-width="5"/>
<path d="M45.5 42C45.5 45.8661 42.59 49 39 49C35.4101 49 32.5 45.8661 32.5 42C32.5 38.1339 35.4101 35 39 35C42.59 35 45.5 38.1339 45.5 42Z" stroke="#26AD4A" stroke-width="5"/>
<path d="M32.5 7L26.1311 13.8587C26.0587 13.9367 26.0587 14.0633 26.1311 14.1413L32.5 21" stroke="#26AD4A" stroke-width="5" stroke-linecap="round" stroke-linejoin="round"/>
<path d="M19.5 49L25.8858 42.123C25.9489 42.0551 25.9489 41.9449 25.8858 41.877L19.5 35" stroke="#703498" stroke-width="5" stroke-linecap="round" stroke-linejoin="round"/>
<path d="M26 14C32.1282 14 35.1923 14 37.0961 16.0503C39 18.1005 39 21.4003 39 28V35" stroke="#26AD4A" stroke-width="5"/>
<path d="M26 42C19.8717 42 16.8076 42 14.9038 39.9497C13 37.8994 13 34.5996 13 28V21" stroke="#703498" stroke-width="5"/>
</svg>
