<svg width="55" height="51" viewBox="0 0 55 51" fill="none" xmlns="http://www.w3.org/2000/svg">
<rect width="55" height="51" rx="8" fill="#154147"/>
<path d="M30.1812 25.9714C30.1812 24.268 28.757 22.887 27 22.887C25.2432 22.887 23.8188 24.268 23.8188 25.9714C23.8188 27.675 25.2432 29.0559 27 29.0559C28.757 29.0559 30.1812 27.675 30.1812 25.9714Z" fill="#53C1DE"/>
<path fill-rule="evenodd" clip-rule="evenodd" d="M37.3317 20.245C38.0035 17.5982 38.8479 12.6899 35.8711 11.0258C32.9082 9.369 29.0525 12.5438 27.0165 14.4494C24.9865 12.5627 21.0225 9.40156 18.0482 11.0709C15.0864 12.7333 15.9998 17.5602 16.6864 20.2236C13.9236 20.9845 9.1875 22.6232 9.1875 25.9714C9.1875 29.31 13.9187 31.0929 16.6652 31.8531C15.9759 34.5312 15.1083 39.2892 18.0739 40.9479C21.0593 42.6169 25.0109 39.531 27.0658 37.6045C29.1148 39.5213 32.9335 42.6275 35.897 40.9642C38.8698 39.2956 38.0955 34.4531 37.4088 31.7742C40.0712 31.0124 44.8125 29.2684 44.8125 25.9714C44.8125 22.6554 40.051 21.0034 37.3317 20.245ZM36.9942 30.3546C36.5433 28.9706 35.9347 27.499 35.1903 25.9787C35.9009 24.4944 36.4859 23.0417 36.9242 21.6667C38.9176 22.2271 43.2907 23.5078 43.2907 25.9714C43.2907 28.4581 39.0942 29.751 36.9942 30.3546ZM35.1344 39.6871C32.9233 40.9281 29.6387 37.9576 28.1255 36.5461C29.1294 35.4815 30.1326 34.2439 31.1117 32.8696C32.8341 32.7215 34.4611 32.4792 35.9367 32.1485C36.42 34.0434 37.3552 38.4406 35.1344 39.6871ZM18.8343 39.6694C16.6229 38.4331 17.6337 34.1873 18.1407 32.2145C19.5999 32.5276 21.2152 32.7527 22.9416 32.8884C23.9271 34.2332 24.9594 35.4692 25.9997 36.5518C24.7144 37.7572 21.056 40.9114 18.8343 39.6694ZM10.7093 25.9714C10.7093 23.4754 15.0562 22.2039 17.0951 21.645C17.541 23.0508 18.1258 24.5209 18.8315 26.0074C18.1166 27.516 17.5235 29.0092 17.0735 30.4317C15.1294 29.8921 10.7093 28.4689 10.7093 25.9714ZM18.8106 12.348C21.031 11.1018 24.4762 14.1367 25.9501 15.5027C24.9152 16.5802 23.8924 17.807 22.9154 19.144C21.2399 19.2945 19.636 19.5363 18.1615 19.8603C17.6084 17.7121 16.5927 13.5927 18.8106 12.348ZM32.2004 20.7478C33.3371 20.8869 34.4262 21.0719 35.4487 21.2982C35.1417 22.2522 34.7591 23.2499 34.3085 24.2725C33.6552 23.0708 32.954 21.8931 32.2004 20.7478ZM27.017 16.5571C27.7189 17.2944 28.4219 18.1177 29.1135 19.011C27.7107 18.9466 26.3057 18.9464 24.9029 19.01C25.5951 18.1251 26.3041 17.303 27.017 16.5571ZM19.7046 24.2715C19.2614 23.2524 18.8822 22.2503 18.5726 21.2827C19.589 21.0621 20.673 20.8819 21.8023 20.7451C21.0466 21.8879 20.3466 23.0651 19.7046 24.2715ZM21.8347 31.303C20.6681 31.1768 19.5677 31.0057 18.5516 30.7912C18.8661 29.8065 19.2537 28.7829 19.7063 27.7418C20.3571 28.9608 21.0678 30.1494 21.8347 31.303ZM27.0591 35.4899C26.3379 34.7352 25.6183 33.9006 24.9157 33.0028C26.3265 33.0565 27.7399 33.0566 29.1506 32.9956C28.4568 33.9097 27.7563 34.7456 27.0591 35.4899ZM34.323 27.6889C34.7991 28.7412 35.2005 29.7593 35.5194 30.7273C34.4864 30.9559 33.3712 31.14 32.1961 31.2767C32.9553 30.1096 33.6677 28.9136 34.323 27.6889ZM30.2624 31.4555C28.1045 31.605 25.9331 31.6033 23.7745 31.4677C22.5479 29.7305 21.456 27.9036 20.5135 26.0069C21.4515 24.1141 22.5355 22.2907 23.7562 20.5563C25.9164 20.398 28.0899 20.3975 30.2501 20.5572C31.4604 22.2916 32.5427 24.1102 33.5024 25.9859C32.5541 27.8777 31.4644 29.7048 30.2624 31.4555ZM35.111 12.3041C37.332 13.5461 36.3434 17.9574 35.8582 19.8756C34.3802 19.5449 32.7752 19.2988 31.0949 19.1459C30.1159 17.7944 29.1016 16.5655 28.0835 15.5019C29.5763 14.1065 32.9115 11.0742 35.111 12.3041Z" fill="#53C1DE"/>
</svg>
