<svg width="55" height="51" viewBox="0 0 55 51" fill="none" xmlns="http://www.w3.org/2000/svg">
<rect width="55" height="51" rx="8" fill="#153644"/>
<path d="M20 22.6667C20.9333 18.2222 23.2667 16 27 16C32.6 16 33.3 21 36.1 21.8333C37.9667 22.3889 39.6 21.5556 41 19.3333C40.0667 23.7778 37.7333 26 34 26C28.4 26 27.7 21 24.9 20.1667C23.0333 19.6111 21.4 20.4444 20 22.6667ZM13 32.6667C13.9333 28.2222 16.2667 26 20 26C25.6 26 26.3 31 29.1 31.8333C30.9667 32.3889 32.6 31.5556 34 29.3333C33.0667 33.7778 30.7333 36 27 36C21.4 36 20.7 31 17.9 30.1667C16.0333 29.6111 14.4 30.4444 13 32.6667Z" fill="#44A8B3"/>
</svg>
