<svg width="46" height="52" viewBox="0 0 46 52" fill="none" xmlns="http://www.w3.org/2000/svg">
<rect width="45" height="51" fill="#0079C7"/>
<path fill-rule="evenodd" clip-rule="evenodd" d="M30.5256 42.9864V46.342C31.1527 46.643 31.8211 46.8548 32.5101 46.9709C33.3064 47.1139 34.1147 47.1842 34.9244 47.1809C35.7136 47.1846 36.5009 47.1072 37.2734 46.9502C37.9669 46.8139 38.6286 46.5543 39.2253 46.1845C39.7791 45.8369 40.2356 45.3612 40.5539 44.7998C41.1238 43.6375 41.199 42.3035 40.7631 41.0877C40.5792 40.633 40.3051 40.2179 39.9565 39.8659C39.5823 39.4917 39.1572 39.169 38.6931 38.9067C38.1588 38.6025 37.6036 38.3342 37.0315 38.1039C36.5815 37.9223 36.1765 37.7459 35.8165 37.5745C35.4968 37.4257 35.1908 37.2504 34.9019 37.0506C34.6756 36.8964 34.4791 36.7046 34.3214 36.4841C34.1851 36.2838 34.1141 36.0482 34.1178 35.8081C34.1147 35.5871 34.1781 35.3701 34.3 35.1836C34.4324 34.9884 34.6091 34.8253 34.8164 34.7067C35.0698 34.5617 35.3456 34.4571 35.6331 34.3972C35.9862 34.3209 36.347 34.2842 36.7086 34.2878C37.0128 34.2888 37.3165 34.31 37.6176 34.3513C37.9429 34.394 38.2646 34.4587 38.5806 34.5448C38.902 34.6315 39.2164 34.7411 39.5211 34.873C39.8168 35.0011 40.0997 35.1556 40.366 35.3345V32.2031C39.8115 31.9992 39.2365 31.8525 38.6504 31.7656C37.9426 31.6655 37.228 31.6183 36.5129 31.6245C35.7311 31.6204 34.9517 31.7067 34.1909 31.8816C33.5032 32.0343 32.8493 32.3059 32.2604 32.6833C31.7133 33.0376 31.2615 33.5143 30.943 34.0734C30.6055 34.6943 30.4385 35.3894 30.4581 36.0914C30.4332 37.0198 30.7477 37.9266 31.3458 38.6508C32.0795 39.4537 33.0047 40.0692 34.0401 40.4434C34.5126 40.633 34.9533 40.8186 35.362 41.0002C35.7308 41.1597 36.0853 41.3488 36.4218 41.5656C36.6932 41.7373 36.9315 41.9538 37.126 42.2055C37.297 42.4337 37.3878 42.7095 37.3848 42.9919C37.3863 43.2035 37.3304 43.4117 37.2228 43.5956C37.1031 43.7932 36.935 43.959 36.7334 44.078C36.4811 44.2275 36.2051 44.3354 35.9166 44.3973C35.5408 44.479 35.1564 44.5176 34.7714 44.5122C34.0157 44.5108 33.2661 44.3813 32.5563 44.1294C31.8147 43.8692 31.127 43.4821 30.5256 42.9864ZM24.7274 34.6323H29.2274V31.8684H16.6803V34.6323H21.16V46.9414H24.7274V34.6323Z" fill="#242322"/>
</svg>
